<svg xmlns="http://www.w3.org/2000/svg" xmlns:xlink="http://www.w3.org/1999/xlink" version="1.1" x="0px" y="0px" viewBox="0 0 100 125" style="enable-background:new 0 0 100 100;" xml:space="preserve"><path d="M25.8755493,41.449646c-0.9175415,0.5136719-1.5464478,1.4837036-1.5464478,2.6079712V49c0,1.6542969,1.3457031,3,3,3  h45.3417969c1.6542969,0,3-1.3457031,3-3v-4.9423828c0-1.1243286-0.6288452-2.0943604-1.5464478-2.6080322  c-0.019165-11.1051025-7.8126221-20.1350098-18.5560303-22.482666c0.4202881-0.8485107,0.6517944-1.7764282,0.6517944-2.7462158  C56.2202148,12.7910156,53.4296875,10,50,10s-6.2202148,2.7910156-6.2202148,6.2207031  c0,0.9589233,0.2419434,1.8934326,0.6611328,2.7442017C33.692749,21.3093872,25.8947144,30.3413086,25.8755493,41.449646z   M73.6708984,49c0,0.5517578-0.4487305,1-1,1H27.3291016c-0.5512695,0-1-0.4482422-1-1v-4.9423828c0-0.5517578,0.4487305-1,1-1  h45.3417969c0.5512695,0,1,0.4482422,1,1V49z M45.7797852,16.2207031C45.7797852,13.8935547,47.6728516,12,50,12  s4.2202148,1.8935547,4.2202148,4.2207031c0,0.8615112-0.2653809,1.6740723-0.7477417,2.3768311  C52.34021,18.4473267,51.1821289,18.3652344,50,18.3652344c-1.1807251,0-2.3374023,0.0820312-3.4683838,0.2318726  C46.0534058,17.8989868,45.7797852,17.072937,45.7797852,16.2207031z M50,20.3652344  c12.2546387,0,21.8800659,9.0549927,22.1143799,20.6923828H27.8856201C28.1199341,29.4202271,37.7453613,20.3652344,50,20.3652344z"/><path d="M54.3823242,28.1015625c4.3935547,0.7998047,7.9916992,4.1025391,9.1669922,8.4130859  c0.1210938,0.4453125,0.5244141,0.7373047,0.9643555,0.7373047c0.0869141,0,0.175293-0.0107422,0.2636719-0.0351562  c0.5327148-0.1455078,0.8466797-0.6953125,0.7016602-1.2275391c-1.3769531-5.0507812-5.5917969-8.9189453-10.7382812-9.8544922  c-0.5473633-0.1054688-1.0639648,0.2617188-1.1630859,0.8046875C53.4790039,27.4824219,53.8393555,28.0029297,54.3823242,28.1015625  z"/><path d="M62.6464844,86.7802734c-0.9765625,0.9707031-2.3696289,1.40625-3.7275391,1.1640625l-31.625-5.6474609  c-0.0581055-0.0107422-0.1166992-0.015625-0.1757812-0.015625H11c-0.5522461,0-1,0.4472656-1,1s0.4477539,1,1,1h16.0297852  l31.5375977,5.6318359c0.3642578,0.0654297,0.7299805,0.0966797,1.09375,0.0966797  c1.6318359,0,3.21875-0.6416016,4.3955078-1.8115234L88.140625,64.2666016  c1.2661133-1.2578125,1.940918-3.0019531,1.8515625-4.7841797c-0.0898438-1.7822266-0.9360352-3.4492188-2.3217773-4.5742188  C85.3193359,53,81.9345703,53.0341797,79.6206055,54.9892578L65.1635742,67.2197266h-1.0761719V65.890625  c0-4.0126953-3.2666016-7.2773438-7.2817383-7.2773438H45.3120117l-17.1162109-3.3955078  c-2.7265625-0.5429688-5.5219727,0.1591797-7.6699219,1.921875c-1.8857422,1.5488281-3.0649414,3.7460938-3.3227539,6.1396484H11  c-0.5522461,0-1,0.4472656-1,1s0.4477539,1,1,1h7.1494141c0.5522461,0,1-0.4472656,1-1  c0-2.1748047,0.9643555-4.2128906,2.6455078-5.59375c1.6835938-1.3808594,3.8764648-1.9287109,6.0112305-1.5068359  L45.019043,60.59375c0.0644531,0.0126953,0.1293945,0.0195312,0.1948242,0.0195312h11.5917969  c2.9125977,0,5.2817383,2.3671875,5.2817383,5.2773438v1.3291016h-19.09375c-0.5522461,0-1,0.4472656-1,1s0.4477539,1,1,1  h22.5361328c0.2363281,0,0.465332-0.0839844,0.6459961-0.2363281l14.7368164-12.4667969  c1.5800781-1.3369141,3.8920898-1.3603516,5.4970703-0.0556641c0.9462891,0.7675781,1.5234375,1.9052734,1.5849609,3.1220703  c0.0610352,1.2158203-0.3994141,2.40625-1.2641602,3.265625L62.6464844,86.7802734z"/><text x="0" y="115" fill="#000000" font-size="5px" font-weight="bold" font-family="'Helvetica Neue', Helvetica, Arial-Unicode, Arial, Sans-serif">Created by Made by Made</text><text x="0" y="120" fill="#000000" font-size="5px" font-weight="bold" font-family="'Helvetica Neue', Helvetica, Arial-Unicode, Arial, Sans-serif">from the Noun Project</text></svg>